# xmcd
#
# Track frame offsets:
#	150
#	20645
#	36531
#	54362
#	73144
#	86977
#	102152
#	115688
#	131889
#	146511
#	165961
#	179720
#
# Disc length: 2640 seconds
# Revision: 0
# Processed by: cddbd v1.5.2PL0 Copyright (c) Steve Scherf et al.
# Submitted via: dBpowerAMP V12.0
#
DISCID=af0a4e0c
DTITLE=Joe Moore - You Still Love Me
DYEAR=2016
DGENRE=Country
TTITLE0=You Still Love Me
TTITLE1=Just To Be Your Man
TTITLE2=A Bible And A Bus Ticket Home
TTITLE3=The Long Black Train
TTITLE4=Randy Travis In My Heart
TTITLE5=Who´s Going To Fill There Shoes
TTITLE6=The Hole
TTITLE7=I Found Jesus On The Jail House Floor
TTITLE8=What´s Wrong With the Way Were Dping It Now (Duet with Chris Logue)
TTITLE9=People Are Crazy
TTITLE10=It´s All Going To Pot (featuring Keltic Storm)
TTITLE11=You Ain´t Dolly (Duet with Caitlin)
EXTD=
EXTT0=
EXTT1=
EXTT2=
EXTT3=
EXTT4=
EXTT5=
EXTT6=
EXTT7=
EXTT8=
EXTT9=
EXTT10=
EXTT11=
PLAYORDER=
